<svg viewBox="0 0 213 224" fill="none" xmlns="http://www.w3.org/2000/svg">
	<g filter="url(#filter0_d_24_145)">
		<path d="M143.415 215.541C152.293 207.837 166.631 203.096 173.408 203.039C180.185 202.982 183.753 202.188 184.676 201.923C185.599 201.658 189.37 200.993 190.737 199.15C192.104 197.306 193.613 193.624 193.257 191.826C192.901 190.027 192.226 186.254 193.291 184.151C194.391 182.074 195.632 180.076 197.007 178.171C197.447 177.475 197.744 176.698 197.879 175.886C198.015 175.074 197.988 174.243 197.798 173.442C197.345 171.959 195.116 170.144 194.249 169.563C193.759 169.237 193.289 168.882 192.84 168.502C193.646 167.237 194.753 166.19 196.061 165.457C197.338 165.064 198.513 164.395 199.503 163.498C200.01 163.108 200.409 162.594 200.66 162.006C200.91 161.417 201.005 160.773 200.934 160.137C200.723 158.508 199.919 157.013 198.676 155.939C197.535 155.107 196.705 155.564 196.534 153.806C196.364 152.048 197.355 147.042 197.355 147.042C197.355 147.042 203.496 144.58 205.764 142.517C208.031 140.454 209.44 139.099 208.629 137.673C207.818 136.247 204.796 136.112 201.291 133.957C197.692 131.503 194.547 128.442 191.995 124.912C190.026 122.151 189.022 125.806 188.159 116.526C187.296 107.246 191.724 109.136 191.871 99.916C192.019 90.6958 189.465 70.9231 181.396 59.1453C173.327 47.3676 164.689 35.4747 147.327 26.6095C129.965 17.7443 108.186 13.7843 105.47 13.7434C102.754 13.7025 102.333 14.5929 102.333 14.5929C100.757 11.6025 98.2274 9.22473 95.1452 7.83786C89.8531 5.35759 79.8507 0.733123 77.2556 0.704734C74.6604 0.676346 69.82 0.59126 67.1784 1.52492C64.5368 2.45858 63.1479 9.96895 63.1479 9.96895C63.1479 9.96895 56.538 9.19041 53.3954 10.702C50.2528 12.2136 31.7117 26.2542 29.7423 28.4406C27.7728 30.6271 28.056 32.1256 28.056 32.1256C28.056 32.1256 21.3336 32.965 19.957 35.6358C18.9756 37.8551 18.3293 40.208 18.0394 42.6172C18.0394 42.6172 13.3001 40.994 12.6909 43.2118C12.3516 44.2698 12.1644 45.3707 12.135 46.4814C12.135 46.4814 8.63485 46.8785 7.52998 49.655C6.42511 52.4315 3.94351 56.5202 4.97174 60.2145C5.99997 63.9088 9.44015 67.5812 9.44015 67.5812C9.44015 67.5812 6.37795 71.1786 6.73304 73.6613C7.08813 76.144 9.93012 76.935 9.93012 76.935C9.21241 76.981 8.52822 77.2553 7.97759 77.7179C7.42696 78.1806 7.03877 78.8072 6.86978 79.5063C6.17318 82.0423 8.70316 84.158 8.70316 84.158C8.70316 84.158 7.43031 83.8084 6.94428 86.786C6.45825 89.7636 6.64647 92.8538 10.5428 93.5818C14.4391 94.3098 17.7906 90.7919 17.7906 90.7919C17.7906 90.7919 20.5015 90.8521 20.668 97.7215C26.3477 101.169 24.0338 100.305 28.9312 104.222C28.9633 110.713 29.7397 116.381 33.4552 127.357C34.6101 137.65 41.3415 156.486 49.2238 163.204C57.96 181.159 52.1215 169.04 58.5189 187.317C57.086 190.013 55.2363 192.466 53.0382 194.585" fill="currentColor"/>
	</g>
	<defs>
		<filter id="filter0_d_24_145" x="0.727478" y="0.689209" width="212.133" height="222.852" filterUnits="userSpaceOnUse" color-interpolation-filters="sRGB">
			<feFlood flood-opacity="0" result="BackgroundImageFix"/>
			<feColorMatrix in="SourceAlpha" type="matrix" values="0 0 0 0 0 0 0 0 0 0 0 0 0 0 0 0 0 0 127 0" result="hardAlpha"/>
			<feOffset dy="4"/>
			<feGaussianBlur stdDeviation="2"/>
			<feComposite in2="hardAlpha" operator="out"/>
			<feColorMatrix type="matrix" values="0 0 0 0 0 0 0 0 0 0 0 0 0 0 0 0 0 0 0.25 0"/>
			<feBlend mode="normal" in2="BackgroundImageFix" result="effect1_dropShadow_24_145"/>
			<feBlend mode="normal" in="SourceGraphic" in2="effect1_dropShadow_24_145" result="shape"/>
		</filter>
	</defs>
</svg>
