<svg width="1147" height="200" viewBox="0 0 1147 200" fill="none" xmlns="http://www.w3.org/2000/svg">
	<path d="M0.116211 100C0.116211 154.88 44.6362 199.4 99.5162 199.4C132.556 199.4 163.356 183.16 181.836 155.72V90.2H143.756L177.356 156.84C170.916 167.2 160.276 175.32 154.676 179.24C147.396 184.28 138.716 187.08 129.476 187.08C79.6362 187.08 24.4762 124.08 24.4762 65.28C24.4762 35.6 41.2762 12.92 70.1162 12.92C89.1562 12.92 111.276 23 131.436 42.04H179.876L179.596 41.48C161.116 16 131.156 0.599976 99.5162 0.599976C44.6362 0.599976 0.116211 45.12 0.116211 100Z" fill="currentColor"/>
	<path d="M204.101 100C204.101 154.88 249.181 199.4 303.781 199.4C358.381 199.4 403.461 154.88 403.461 100C403.461 45.12 358.381 0.599976 303.781 0.599976C249.181 0.599976 204.101 45.12 204.101 100ZM228.741 66.12C228.741 30 251.141 12.92 274.101 12.92C326.181 12.92 378.821 79.84 378.821 133.88C378.821 170 356.421 187.08 333.461 187.08C281.381 187.08 228.741 120.16 228.741 66.12Z" fill="currentColor"/>
	<path d="M511.735 87.12C537.495 73.12 552.055 64.72 552.055 43.16C552.055 19.64 532.735 1.99997 506.695 1.99997H412.335L427.455 19.08V180.92L412.335 198H478.975L463.855 180.92V139.76C463.855 126.6 469.735 116.24 480.095 107L522.375 186.8L512.015 198H575.295L559.615 180.92L511.735 87.12ZM463.855 4.23997H470.855C499.415 4.23997 515.095 18.8 515.095 44C515.095 57.44 512.015 82.36 490.735 96.36C475.615 106.44 467.495 115.12 463.855 125.76V4.23997Z" fill="currentColor"/>
	<path d="M580.226 198H648.546C703.426 198 749.346 157.12 749.346 100.28C749.346 44.56 706.786 2.55998 648.826 1.99997H580.226L595.346 19.08V180.92L580.226 198ZM631.746 195.76V4.23997H647.706C691.666 4.23997 708.746 47.64 708.746 100.28C708.746 150.68 690.546 195.76 647.426 195.76H631.746Z" fill="currentColor"/>
	<path d="M769.022 100C769.022 154.88 814.102 199.4 868.702 199.4C923.302 199.4 968.383 154.88 968.383 100C968.383 45.12 923.302 0.599976 868.702 0.599976C814.102 0.599976 769.022 45.12 769.022 100ZM793.662 66.12C793.662 30 816.062 12.92 839.022 12.92C891.102 12.92 943.742 79.84 943.742 133.88C943.742 170 921.342 187.08 898.382 187.08C846.302 187.08 793.662 120.16 793.662 66.12Z" fill="currentColor"/>
	<path d="M1118.86 32.24L1146.58 1.99997H1088.62L1116.34 32.24V112.88L1025.34 1.99997H977.461L992.021 19.36V167.76L964.301 198H1022.26L994.541 167.76V22.72L1116.34 169.16L1089.46 198H1146.58L1118.86 167.76V32.24Z" fill="currentColor"/>
</svg>
