<svg fill="none" xmlns="http://www.w3.org/2000/svg">
	<path d="M518.8,1080l-66,0c-1.6-7.7-9.5-81.5-108.9-94.7c-41.1-5.5-82.9-6.2-123.2-16 c-55.3-13.4-110.3-49.7-117.3-110.6c-3.2-28,5.2-55.9,13.8-82.7c2.1-6.7,4.3-13.9,2.2-20.7c-2.3-7.2-8.2-12.7-14-17.5 c-34.1-28.2-27.2-48.9-7-67.5c7.3-6.7-0.3-7.5-0.3-7.5c-13.5-4.5-27.1-20.5-26.5-34.7c0.6-14.3,13.6-27.6,17.8-41.3 c5.5-17.9,7.8-36.7,6.9-55.4c-0.2-3.8-0.6-7.8-2.7-11c-2.6-3.8-7.2-5.7-11.6-7.1c-36.5-11-78.8-24.4-81.2-39.7 c-7.4-47.7,36.1-73.9,61.5-97.5c33.4-31,43.7-69.5,66.6-109.7c5.7-10,10.8-21.3,6.9-32.2c-4.7-13.1-6.8-20.2-13.4-32.5 c-13.7-25.4,9.4-49.5,18.8-72C150.9,106.4,180.6,20,185.3,0h333.5V1080z">
	</path>
	<path d="M823.9,1080l-413.2,0c-1-7.8-19.3-53-110.5-54.2c-41.4-0.5-82.1-12.9-121.5-25.8c-54-17.8-105-49.3-107.1-110.7 c-1-28.2,9.7-55.3,20.4-81.4c2.7-6.5,5.4-13.5,3.9-20.4c-1.7-7.4-6.4-14.2-12.6-18.6c-46.3-33.3-38.6-53.6-1.5-67.9 c9.2-3.6-13.4-22.9-13.4-22.9c-13.1-5.6-25.4-22.6-23.6-36.7s29.6-11.1,34.8-24.3c6.9-17.4,10.8-36,11.3-54.7 c0.1-3.8,0-7.9-1.8-11.2c-2.3-4-6.7-6.3-11-8c-35.5-13.9-76.6-30.7-77.7-46.1c-3.5-48.1,41.9-70.8,69.1-92.2 c35.8-28.2,49.2-65.8,75.2-104c6.5-9.5,12.5-20.4,9.5-31.5c-3.6-13.4-5.2-20.7-10.8-33.5c-11.6-26.4,13.4-48.6,24.5-70.2 c11.5-22.5,62.8-146.2,69-165.8h587.1V1080z">
	</path>
	<path d="M995.5,1080l-665,0c0.1-7.8-36-18.6-105.8-24.2c-41.3-3.3-79.6-24-116.8-42.2C56.9,988.5,10.7,950.3,17,889.3 c2.9-28,8.7-44.2,22.9-68.6c3.5-6.1,7.2-12.7,6.6-19.7c-0.6-7.5-8.7-31.6-14-37c-30-26.3,21-32,21-32S58,704,40,688 c-6.5-6.7-37.4-15.1-25.4-46c5.2-13.3,26.1-22.8,37.4-31.6c14.5-11.3,25.8-23.7,28.9-42.2c0.6-3.8,1.1-7.8-0.3-11.3 c-1.7-4.3-5.8-7.2-9.8-9.4C37.4,528.8-1,506.5,0,491.1c3.1-48.2,51.2-64.3,81.1-81.9c39.3-23.1,57.7-58.4,88.7-92.7 c7.7-8.6,15.2-18.5,13.7-29.9c-1.8-13.8-2.3-21.2-6.1-34.6c-7.9-27.8,19.9-46.3,33.9-66.2C225.9,165.1,315.6,18.5,324.5,0h671V1080z">
	</path>
</svg>


